# xmcd
#
# Track frame offsets: 
#        150
#        16418
#        41684
#        70679
#        119776
#        124677
#        147107
#        162572
#        181747
#        228584
#        257930
#        285931
#
# Disc length: 4134 seconds
#
# Revision: 3
# Processed by: cddbd v1.5.2PL0 Copyright (c) Steve Scherf et al.
# Submitted via: ExactAudioCopyFreeDBPlugin 1.0
#
DISCID=ab10240c
DTITLE=The Isley Brothers - Wild in Woodstock (previously unreleased)
DYEAR=1980
DGENRE=Rhythm and Blues
TTITLE0=That Lady
TTITLE1=Say You Will
TTITLE2=Here We Go Again
TTITLE3=Don't Say Goodnight (It's Time for Love)
TTITLE4=Medley:  Hello It's Me - Footsteps in the Dark
TTITLE5=For the Love of You
TTITLE6=Fight the Power
TTITLE7=Groove with You
TTITLE8=Summer Breeze
TTITLE9=Voyage to Atlantis
TTITLE10=It's a Disco Night (Rock Don't Stop)
TTITLE11=Livin' in the Life - Go for Your Guns
EXTD=
EXTT0=
EXTT1=
EXTT2=
EXTT3=
EXTT4=
EXTT5=
EXTT6=
EXTT7=
EXTT8=
EXTT9=
EXTT10=
EXTT11=
PLAYORDER=
